<mxfile host="app.diagrams.net" modified="2024-05-06T06:56:08.667Z" agent="Mozilla/5.0 (Macintosh; Intel Mac OS X 10_15_7) AppleWebKit/537.36 (KHTML, like Gecko) Chrome/124.0.0.0 Safari/537.36" etag="tUrx6vn09YYDJnupNKDi" version="24.3.1" type="github">
  <diagram name="페이지-1" id="2TNt6utVfyCAAj0qyxSx">
    <mxGraphModel dx="1026" dy="565" grid="1" gridSize="10" guides="1" tooltips="1" connect="1" arrows="1" fold="1" page="1" pageScale="1" pageWidth="1390" pageHeight="1590" math="0" shadow="0">
      <root>
        <mxCell id="0" />
        <mxCell id="1" parent="0" />
        <mxCell id="4l_4i8vxCeSQ_NXKmcPT-2" value="" style="rounded=1;whiteSpace=wrap;html=1;fillColor=#dae8fc;strokeColor=#6c8ebf;arcSize=10;" vertex="1" parent="1">
          <mxGeometry x="200" y="120" width="470" height="400" as="geometry" />
        </mxCell>
        <mxCell id="4l_4i8vxCeSQ_NXKmcPT-21" value="" style="rounded=1;whiteSpace=wrap;html=1;fillColor=none;dashed=1;arcSize=11;" vertex="1" parent="1">
          <mxGeometry x="449" y="405" width="181" height="65" as="geometry" />
        </mxCell>
        <mxCell id="4l_4i8vxCeSQ_NXKmcPT-3" value="WAS" style="text;html=1;align=center;verticalAlign=middle;whiteSpace=wrap;rounded=0;fontStyle=1;fontSize=24;" vertex="1" parent="1">
          <mxGeometry x="405" y="90" width="60" height="30" as="geometry" />
        </mxCell>
        <mxCell id="4l_4i8vxCeSQ_NXKmcPT-4" value="&lt;div&gt;&lt;br&gt;&lt;/div&gt;NGINX" style="rounded=1;whiteSpace=wrap;html=1;" vertex="1" parent="1">
          <mxGeometry x="260" y="175" width="120" height="295" as="geometry" />
        </mxCell>
        <mxCell id="4l_4i8vxCeSQ_NXKmcPT-5" value="&amp;nbsp; &amp;nbsp; &amp;nbsp;Vue.js&lt;div&gt;&lt;br&gt;&lt;div&gt;&amp;nbsp; &amp;nbsp; &amp;nbsp; Vuetify&lt;/div&gt;&lt;/div&gt;" style="rounded=1;whiteSpace=wrap;html=1;" vertex="1" parent="1">
          <mxGeometry x="460" y="201" width="160" height="70" as="geometry" />
        </mxCell>
        <mxCell id="4l_4i8vxCeSQ_NXKmcPT-6" value="&amp;nbsp; &amp;nbsp; &amp;nbsp; &amp;nbsp; &amp;nbsp;Spring Boot" style="rounded=1;whiteSpace=wrap;html=1;" vertex="1" parent="1">
          <mxGeometry x="460" y="417" width="160" height="40" as="geometry" />
        </mxCell>
        <mxCell id="4l_4i8vxCeSQ_NXKmcPT-7" value="" style="shape=image;verticalLabelPosition=bottom;labelBackgroundColor=default;verticalAlign=top;aspect=fixed;imageAspect=0;image=data:image/svg+xml,PHN2ZyB4bWxucz0iaHR0cDovL3d3dy53My5vcmcvMjAwMC9zdmciIHZpZXdCb3g9IjAgMCAyNCAyNCIgcm9sZT0iaW1nIiBmaWxsPSIjMDA5NjM5Ij48dGl0bGU+TkdJTlg8L3RpdGxlPjxwYXRoIGQ9Ik0xMiAwTDEuNjA1IDZ2MTJMMTIgMjRsMTAuMzk1LTZWNkwxMiAwem02IDE2LjU5YzAgLjcwNS0uNjQ2IDEuMjktMS41MjkgMS4yOS0uNjMxIDAtMS4zNTEtLjI1NS0xLjgwMS0uODFsLTYtNy4xNDF2Ni42NmMwIC43MjEtLjU3IDEuMjktMS4yNzQgMS4yOUg3LjMyYy0uNzIxIDAtMS4yOS0uNi0xLjI5LTEuMjlWNy40MWMwLS43MDUuNjMtMS4yOSAxLjUtMS4yOS42NDYgMCAxLjM4LjI1NSAxLjgzLjgxbDUuOTcgNy4xNDFWNy40MWMwLS43MjEuNi0xLjI5IDEuMjktMS4yOWguMDc1Yy43MiAwIDEuMjkuNiAxLjI5IDEuMjl2OS4xOEgxOHoiLz48L3N2Zz4=;" vertex="1" parent="1">
          <mxGeometry x="308" y="297" width="24" height="24" as="geometry" />
        </mxCell>
        <mxCell id="4l_4i8vxCeSQ_NXKmcPT-8" value="" style="shape=image;verticalLabelPosition=bottom;labelBackgroundColor=default;verticalAlign=top;aspect=fixed;imageAspect=0;image=data:image/svg+xml,PHN2ZyB4bWxucz0iaHR0cDovL3d3dy53My5vcmcvMjAwMC9zdmciIHZpZXdCb3g9IjAgMCAyNCAyNCIgcm9sZT0iaW1nIiBmaWxsPSIjNkRCMzNGIj48dGl0bGU+U3ByaW5nIEJvb3Q8L3RpdGxlPjxwYXRoIGQ9Im0yMy42OTMgMTAuNzA1OC00LjczLTguMTg0NGMtLjQwOTQtLjcxMDYtMS40MTY2LTEuMjk0Mi0yLjI0MDItMS4yOTQySDcuMjcyNWMtLjgxOSAwLTEuODMwOC41ODM2LTIuMjQwMiAxLjI5NDJMLjMwNyAxMC43MDU4Yy0uNDA5NS43MTA2LS40MDk1IDEuODczIDAgMi41ODM3bDQuNzI1MiA4LjE4OWMuNDA5NC43MTA3IDEuNDE2NiAxLjI5NDMgMi4yNDAyIDEuMjk0M2g5LjQ1NWMuODE5IDAgMS44MjYtLjU4MzYgMi4yNDAyLTEuMjk0Mmw0LjcyNTItOC4xODljLjQwOTUtLjcxMDcuNDA5NS0xLjg3MzIgMC0yLjU4Mzh6TTEwLjk3NjMgNS43NTQ3YzAtLjUzNjUuNDM3Ny0uOTc0Mi45NzQyLS45NzQycy45NzQyLjQzNzcuOTc0Mi45NzQydjUuODIxN2MwIC41MzY2LS40Mzc3Ljk3NDItLjk3NDIuOTc0MnMtLjk3NDItLjQzNzYtLjk3NDItLjk3NDJ6bS45NzQyIDEyLjQyOTRjLTMuNjQyNyAwLTYuNjA3Ny0yLjk2NS02LjYwNzctNi42MDc3LjAwNDctMi4wODk2Ljk5My00LjA1MjEgMi42Njg1LTUuMzA0YS44NjU3Ljg2NTcgMCAwIDEgMS4yMTQyLjE3ODguODY1Ny44NjU3IDAgMCAxLS4xNzg4IDEuMjE0M2MtMi4xNjAyIDEuNjA0OC0yLjYxMiA0LjY1OTItMS4wMDcyIDYuODE5NCAxLjYwNDkgMi4xNjAzIDQuNjU5MyAyLjYxMiA2LjgxOTUgMS4wMDcyIDEuMjM3OC0uOTE3NyAxLjk2NzMtMi4zNzIgMS45NjczLTMuOTE1N2E0Ljg5NzIgNC44OTcyIDAgMCAwLTEuOTg2MS0zLjkyNWMtLjM4Ni0uMjgyNC0uNDY2LS44Mjg0LS4xODM2LTEuMjE0My4yODI0LS4zODYuODI4My0uNDY2IDEuMjE0My0uMTgzNSAxLjY4OTUgMS4yNDcxIDIuNjgyNiAzLjIyMzggMi42ODczIDUuMzIyOCAwIDMuNjQ3NC0yLjk2NSA2LjYwNzctNi42MDc3IDYuNjA3N3oiLz48L3N2Zz4=;" vertex="1" parent="1">
          <mxGeometry x="492" y="426" width="24" height="24" as="geometry" />
        </mxCell>
        <mxCell id="4l_4i8vxCeSQ_NXKmcPT-9" value="" style="shape=image;verticalLabelPosition=bottom;labelBackgroundColor=default;verticalAlign=top;aspect=fixed;imageAspect=0;image=data:image/svg+xml,PHN2ZyB4bWxucz0iaHR0cDovL3d3dy53My5vcmcvMjAwMC9zdmciIHZpZXdCb3g9IjAgMCAyNCAyNCIgcm9sZT0iaW1nIiBmaWxsPSIjNEZDMDhEIj48dGl0bGU+VnVlLmpzPC90aXRsZT48cGF0aCBkPSJNMjQsMS42MUgxNC4wNkwxMiw1LjE2LDkuOTQsMS42MUgwTDEyLDIyLjM5Wk0xMiwxNC4wOCw1LjE2LDIuMjNIOS41OUwxMiw2LjQxbDIuNDEtNC4xOGg0LjQzWiIvPjwvc3ZnPg==;" vertex="1" parent="1">
          <mxGeometry x="497" y="211" width="26" height="26" as="geometry" />
        </mxCell>
        <mxCell id="4l_4i8vxCeSQ_NXKmcPT-10" value="" style="shape=image;verticalLabelPosition=bottom;labelBackgroundColor=default;verticalAlign=top;aspect=fixed;imageAspect=0;image=data:image/svg+xml,PHN2ZyB4bWxucz0iaHR0cDovL3d3dy53My5vcmcvMjAwMC9zdmciIHZpZXdCb3g9IjAgMCAyNCAyNCIgcm9sZT0iaW1nIiBmaWxsPSIjMTg2N0MwIj48dGl0bGU+VnVldGlmeTwvdGl0bGU+PHBhdGggZD0iTTYuMzEyIDEyLjU2NCAxMi42MzYgMS4ySDBsNi4zMTIgMTEuMzY0Wk0xNC45NCAxLjIgNy40NjQgMTQuNjQgMTIgMjIuOCAyNCAxLjJoLTkuMDZabTQuOTggMi40TDEyIDE3Ljg1NmwtMS43ODgtMy4yMTZMMTYuMzQ0IDMuNmgzLjU3NlpNNi4zMTIgNy42MiA0LjA4IDMuNmg0LjQ3Nkw2LjMxMiA3LjYyWiIvPjwvc3ZnPg==;" vertex="1" parent="1">
          <mxGeometry x="497" y="241" width="24" height="24" as="geometry" />
        </mxCell>
        <mxCell id="4l_4i8vxCeSQ_NXKmcPT-11" value="Web" style="text;html=1;align=center;verticalAlign=middle;whiteSpace=wrap;rounded=0;" vertex="1" parent="1">
          <mxGeometry x="290" y="150" width="60" height="30" as="geometry" />
        </mxCell>
        <mxCell id="4l_4i8vxCeSQ_NXKmcPT-12" value="FE (Serverless)" style="text;html=1;align=center;verticalAlign=middle;whiteSpace=wrap;rounded=0;" vertex="1" parent="1">
          <mxGeometry x="490" y="150" width="100" height="30" as="geometry" />
        </mxCell>
        <mxCell id="4l_4i8vxCeSQ_NXKmcPT-13" value="" style="rounded=1;whiteSpace=wrap;html=1;fillColor=none;dashed=1;arcSize=11;" vertex="1" parent="1">
          <mxGeometry x="449" y="175" width="181" height="195" as="geometry" />
        </mxCell>
        <mxCell id="4l_4i8vxCeSQ_NXKmcPT-14" value="Admin" style="text;html=1;align=center;verticalAlign=middle;whiteSpace=wrap;rounded=0;" vertex="1" parent="1">
          <mxGeometry x="510" y="176" width="60" height="30" as="geometry" />
        </mxCell>
        <mxCell id="4l_4i8vxCeSQ_NXKmcPT-15" value="&amp;nbsp; &amp;nbsp; &amp;nbsp;Vue.js" style="rounded=1;whiteSpace=wrap;html=1;" vertex="1" parent="1">
          <mxGeometry x="460" y="306" width="160" height="44" as="geometry" />
        </mxCell>
        <mxCell id="4l_4i8vxCeSQ_NXKmcPT-16" value="" style="shape=image;verticalLabelPosition=bottom;labelBackgroundColor=default;verticalAlign=top;aspect=fixed;imageAspect=0;image=data:image/svg+xml,PHN2ZyB4bWxucz0iaHR0cDovL3d3dy53My5vcmcvMjAwMC9zdmciIHZpZXdCb3g9IjAgMCAyNCAyNCIgcm9sZT0iaW1nIiBmaWxsPSIjNEZDMDhEIj48dGl0bGU+VnVlLmpzPC90aXRsZT48cGF0aCBkPSJNMjQsMS42MUgxNC4wNkwxMiw1LjE2LDkuOTQsMS42MUgwTDEyLDIyLjM5Wk0xMiwxNC4wOCw1LjE2LDIuMjNIOS41OUwxMiw2LjQxbDIuNDEtNC4xOGg0LjQzWiIvPjwvc3ZnPg==;" vertex="1" parent="1">
          <mxGeometry x="497" y="316" width="26" height="26" as="geometry" />
        </mxCell>
        <mxCell id="4l_4i8vxCeSQ_NXKmcPT-18" value="Client" style="text;html=1;align=center;verticalAlign=middle;whiteSpace=wrap;rounded=0;" vertex="1" parent="1">
          <mxGeometry x="510" y="281" width="60" height="30" as="geometry" />
        </mxCell>
        <mxCell id="4l_4i8vxCeSQ_NXKmcPT-20" value="BE (Tomcat)" style="text;html=1;align=center;verticalAlign=middle;whiteSpace=wrap;rounded=0;" vertex="1" parent="1">
          <mxGeometry x="490" y="380" width="100" height="30" as="geometry" />
        </mxCell>
        <mxCell id="4l_4i8vxCeSQ_NXKmcPT-22" value="" style="endArrow=classic;startArrow=classic;html=1;rounded=0;exitX=0.404;exitY=0.393;exitDx=0;exitDy=0;exitPerimeter=0;" edge="1" parent="1">
          <mxGeometry width="50" height="50" relative="1" as="geometry">
            <mxPoint x="385.8800000000001" y="326.13" as="sourcePoint" />
            <mxPoint x="445" y="326" as="targetPoint" />
          </mxGeometry>
        </mxCell>
        <mxCell id="4l_4i8vxCeSQ_NXKmcPT-23" value="" style="endArrow=classic;startArrow=classic;html=1;rounded=0;exitX=0.404;exitY=0.393;exitDx=0;exitDy=0;exitPerimeter=0;" edge="1" parent="1">
          <mxGeometry width="50" height="50" relative="1" as="geometry">
            <mxPoint x="385.8800000000001" y="436.63" as="sourcePoint" />
            <mxPoint x="445" y="436.5" as="targetPoint" />
          </mxGeometry>
        </mxCell>
        <mxCell id="4l_4i8vxCeSQ_NXKmcPT-24" value="" style="endArrow=classic;startArrow=classic;html=1;rounded=0;exitX=0.404;exitY=0.393;exitDx=0;exitDy=0;exitPerimeter=0;" edge="1" parent="1">
          <mxGeometry width="50" height="50" relative="1" as="geometry">
            <mxPoint x="385.8800000000001" y="240.13" as="sourcePoint" />
            <mxPoint x="445" y="240" as="targetPoint" />
          </mxGeometry>
        </mxCell>
        <mxCell id="4l_4i8vxCeSQ_NXKmcPT-25" value="" style="rounded=1;whiteSpace=wrap;html=1;" vertex="1" parent="1">
          <mxGeometry x="720" y="203" width="250" height="177" as="geometry" />
        </mxCell>
      </root>
    </mxGraphModel>
  </diagram>
</mxfile>
